<?xml version="1.0" encoding="UTF-8"?>
<!DOCTYPE svg PUBLIC "-//W3C//DTD SVG 1.1//EN" "http://www.w3.org/Graphics/SVG/1.1/DTD/svg11.dtd">
<!-- Creator: CorelDRAW X6 -->
<svg xmlns="http://www.w3.org/2000/svg" xml:space="preserve" width="5.22377in" height="1.10102in" version="1.1" style="shape-rendering:geometricPrecision; text-rendering:geometricPrecision; image-rendering:optimizeQuality; fill-rule:evenodd; clip-rule:evenodd"
viewBox="0 0 3613 762"
 xmlns:xlink="http://www.w3.org/1999/xlink">
 <defs>
  <style type="text/css">
   <![CDATA[
    .fil2 {fill:#0C5081}
    .fil3 {fill:#FF6501}
    .fil0 {fill:#373435;fill-rule:nonzero}
    .fil1 {fill:#0C5081;fill-rule:nonzero}
   ]]>
  </style>
 </defs>
 <g id="Layer_x0020_1">
  <metadata id="CorelCorpID_0Corel-Layer"/>
  <path class="fil0" d="M825 660c0,3 0,6 -1,9 -1,3 -1,6 -3,8 -1,3 -3,6 -4,8 -2,3 -4,6 -6,9 -1,2 -3,3 -4,5 -1,2 -3,3 -4,4 -1,1 -3,3 -4,4 -1,1 -2,2 -4,3 -2,2 -5,3 -8,4 -3,1 -7,3 -11,4 -4,1 -8,2 -12,3 -4,1 -7,1 -11,1 -3,0 -6,0 -9,-1 -3,-1 -5,-2 -7,-3 -2,-1 -3,-3 -4,-5 -1,-2 -2,-4 -2,-7 0,-2 0,-3 1,-5 1,-1 2,-3 3,-4 1,-1 3,-2 5,-2 2,-1 4,-1 6,-1 1,0 2,0 3,0 1,0 2,0 2,0 1,0 2,0 2,1 1,0 2,1 3,1 3,1 6,2 7,2 1,0 2,0 3,0 1,0 3,-1 5,-1 2,-1 3,-1 4,-2 1,-1 3,-1 3,-2 3,-2 5,-4 8,-6 3,-3 5,-5 7,-8 2,-3 4,-6 5,-9 1,-3 2,-6 2,-9 0,-2 0,-4 -2,-6 -1,-2 -2,-3 -4,-5 -2,-1 -3,-3 -5,-4 -2,-1 -4,-2 -6,-3 -2,-1 -3,-1 -5,-1 -2,0 -3,-1 -4,-1 -2,0 -4,0 -6,0 -2,0 -3,0 -4,1 -1,0 -2,1 -4,1 -1,0 -2,1 -4,2 -2,1 -3,1 -4,2 -1,0 -2,0 -3,0 -2,0 -3,0 -4,-1 -1,-1 -3,-1 -3,-2 -1,-1 -2,-2 -2,-3 -1,-1 -1,-2 -1,-3 0,-2 0,-4 1,-6 1,-2 2,-3 3,-5 1,-1 2,-2 4,-3 1,-1 3,-1 5,-2 1,0 2,0 3,0 1,0 2,0 3,0 1,0 2,0 3,0 1,0 1,0 2,0 1,-1 3,-2 5,-3 2,-1 4,-3 6,-4 2,-2 4,-3 6,-5 2,-2 4,-3 6,-5 2,-2 3,-3 4,-5 1,-2 2,-3 2,-4 0,-2 -1,-4 -3,-5 -2,-1 -6,-2 -11,-2 -4,0 -8,0 -13,1 -5,1 -10,2 -15,3 -2,1 -4,1 -6,2 -2,1 -4,2 -6,3 -2,1 -3,2 -5,3 -1,1 -3,2 -4,3 0,0 0,1 0,2 0,1 0,3 0,4 0,2 0,4 0,7 0,3 0,7 0,11 0,3 0,5 0,7 0,2 0,3 0,5 0,2 0,3 -1,5 0,2 0,4 -1,7 -1,4 -1,7 -1,11 0,3 -1,6 -1,9l0 18c0,6 -1,11 -4,14 -2,3 -6,4 -11,4 -2,0 -5,0 -6,-1 -2,-1 -3,-2 -4,-4 -1,-2 -2,-4 -2,-7 0,-3 -1,-6 -1,-9 0,0 0,-1 0,-2 0,-1 0,-3 1,-5 0,-2 1,-4 1,-7 0,-3 1,-5 1,-7 0,-2 1,-4 1,-6 0,-2 0,-3 0,-4 0,0 0,-1 0,-3 0,-2 0,-4 1,-6 0,-2 1,-5 1,-8 0,-3 1,-5 1,-8 0,-2 0,-5 1,-6 0,-2 0,-3 0,-3 1,-5 1,-8 1,-9 0,-1 0,-2 0,-2 0,-1 0,-2 0,-3 0,-1 0,-2 0,-3 0,-1 0,-1 0,-2 0,-3 0,-5 1,-7 0,-2 1,-4 2,-6 3,-5 5,-8 8,-8 2,0 4,-1 6,-1 2,-1 4,-1 5,-2 8,-3 15,-5 19,-6 5,-2 8,-3 9,-3 2,-1 4,-1 6,-2 2,0 4,-1 6,-1 2,0 5,0 7,-1 3,0 6,0 9,0 2,0 4,0 7,1 3,1 5,2 7,3 2,1 4,3 6,4 2,2 3,3 5,5 0,1 1,2 1,3 0,1 1,2 1,4 0,1 1,3 1,4 0,1 0,2 0,3 0,5 -2,10 -6,15 -4,5 -10,11 -17,17 4,1 9,3 13,5 4,2 7,5 10,8 3,3 5,6 7,9 2,3 3,7 3,10z"/>
  <path id="1" class="fil0" d="M1019 635c0,4 -1,8 -4,12 -3,4 -6,9 -10,13 -4,4 -9,9 -14,13 -5,4 -10,8 -15,11 -5,3 -10,6 -14,8 -5,2 -8,3 -11,3 -4,0 -8,-1 -11,-3 -3,-2 -5,-4 -7,-7 -2,-3 -3,-6 -5,-10 -1,-4 -2,-8 -2,-12 -1,2 -2,5 -4,8 -2,3 -3,5 -5,8 -2,3 -4,5 -6,8 -2,2 -4,4 -5,6 -2,2 -5,5 -8,7 -3,2 -6,4 -9,6 -3,2 -6,3 -10,4 -3,1 -7,2 -11,2 -3,0 -6,-1 -8,-2 -2,-1 -4,-3 -6,-5 -2,-2 -3,-5 -4,-7 -1,-3 -1,-6 -1,-8 0,-2 0,-5 1,-8 0,-3 1,-5 1,-8 1,-3 1,-5 2,-8 0,-3 1,-5 1,-8 0,-2 0,-4 0,-6 0,-2 0,-4 0,-6 0,-2 0,-4 1,-7 0,-2 1,-4 1,-6 0,-1 1,-3 1,-4 0,-1 1,-2 2,-3 1,-1 2,-2 3,-2 1,-1 3,-1 5,-1 4,0 7,1 9,4 2,2 2,6 2,11 0,1 0,3 0,5 0,2 0,4 -1,6 0,2 -1,4 -1,6 0,2 -1,4 -1,6 -1,4 -2,9 -3,13 -1,4 -1,8 -1,11 0,2 0,4 1,5 1,1 2,2 3,2 3,0 6,-1 9,-3 3,-2 6,-4 9,-6 3,-3 6,-5 8,-8 3,-3 5,-6 7,-8 2,-2 3,-5 5,-9 2,-3 3,-7 5,-11 2,-4 3,-8 5,-11 2,-4 3,-7 4,-10 2,-4 4,-7 6,-9 2,-2 4,-3 6,-3 2,0 4,0 5,1 1,1 2,3 2,5 0,1 0,3 0,5 0,2 -1,4 -1,7 0,2 -1,5 -1,7 0,2 0,4 0,5 0,1 0,2 0,4 0,2 0,3 0,5 0,2 0,3 0,5 0,1 0,3 1,4 0,1 1,3 1,4 1,2 1,3 2,5 1,2 2,3 3,4 1,1 2,2 3,2 3,0 7,-1 11,-3 4,-2 8,-4 12,-7 4,-3 8,-6 12,-10 4,-4 8,-7 12,-11 2,-2 3,-3 5,-5 2,-2 3,-3 4,-4 1,-1 3,-2 4,-3 1,-1 2,-1 3,-1 1,0 2,0 2,1 1,1 1,1 1,2z"/>
  <path id="2" class="fil0" d="M1101 643c0,2 -1,4 -2,7 -2,3 -4,5 -6,8 -2,3 -5,6 -8,9 -3,3 -6,6 -8,9 -2,2 -4,4 -7,6 -3,3 -7,6 -11,9 -4,3 -8,7 -12,10 -4,4 -8,7 -12,10 -4,3 -7,6 -10,8 -3,2 -5,4 -6,5 -4,3 -8,5 -11,6 -3,1 -7,2 -9,2 -2,0 -4,0 -6,-1 -2,0 -3,-1 -4,-2 -1,-1 -2,-1 -2,-2 0,-1 -1,-2 -1,-3 0,-2 0,-4 1,-6 1,-2 2,-3 4,-5 2,-2 4,-3 7,-5 3,-1 6,-3 10,-5 2,-1 5,-2 7,-3 2,-1 4,-2 5,-3 1,-1 3,-2 3,-4 1,-1 1,-3 1,-5 0,0 0,-1 -1,-3 -1,-1 -1,-3 -2,-4 -1,-2 -2,-3 -3,-5 -1,-2 -2,-4 -4,-6 -1,-2 -2,-4 -3,-5 -1,-2 -2,-3 -2,-4 -3,-5 -4,-10 -4,-15 0,-2 0,-4 1,-7 0,-2 1,-5 2,-7 1,-3 2,-6 4,-9 2,-3 4,-5 6,-8 2,-2 5,-4 7,-5 2,-1 4,-2 6,-2 2,0 4,0 6,1 1,0 3,1 3,2 1,1 1,2 2,3 0,1 1,3 1,5 0,2 0,3 -1,5 -1,1 -2,3 -3,4 -1,1 -2,3 -4,4 -1,1 -2,2 -3,3 -1,1 -3,2 -4,3 -1,1 -2,2 -3,3 0,4 1,8 3,11 1,2 2,4 4,6 1,2 3,5 4,8 2,3 3,5 4,7 1,2 2,4 3,6 1,0 2,-1 4,-3 2,-1 4,-3 6,-5 2,-2 5,-4 8,-6 3,-2 6,-4 9,-7 3,-2 6,-5 8,-7 3,-2 5,-5 7,-7 2,-2 3,-3 5,-5 1,-1 2,-2 3,-3 1,-1 2,-1 2,-2 1,0 1,-1 2,-1 1,0 2,0 2,1 1,1 1,1 1,2 0,1 1,1 1,2 0,1 0,1 0,1z"/>
  <path id="3" class="fil0" d="M1128 571c0,2 0,4 -1,6 -1,2 -2,4 -3,5 -2,3 -6,5 -11,5 -2,0 -4,0 -6,0 -2,0 -4,-1 -5,-1 -1,-1 -3,-1 -4,-2 -1,-1 -1,-2 -1,-3 0,-2 0,-4 2,-6 1,-2 2,-4 4,-6 2,-2 3,-4 5,-5 2,-1 4,-2 6,-2 2,0 4,0 6,0 2,0 3,1 4,2 1,1 2,2 3,3 1,1 1,3 1,5zm61 80c0,1 -1,3 -2,6 -1,2 -3,5 -5,8 -2,3 -4,6 -7,9 -3,3 -6,7 -9,10 -3,4 -7,7 -11,11 -4,4 -8,7 -13,10 -4,3 -9,6 -13,8 -4,2 -8,3 -12,3 -5,0 -9,-1 -12,-2 -3,-2 -6,-4 -9,-6 -2,-3 -4,-6 -6,-9 -1,-3 -3,-7 -4,-11 -1,-4 -2,-8 -2,-12 0,-4 0,-8 0,-11 0,-1 0,-3 0,-6 0,-3 0,-6 1,-9 0,-3 1,-6 1,-9 0,-3 1,-5 1,-7 1,-3 3,-6 7,-9 3,-3 7,-4 11,-4 4,0 6,3 6,8 0,2 0,5 -1,8 0,3 -1,5 -1,8 -1,5 -1,9 -2,13 0,4 0,7 0,10 0,3 0,7 1,10 0,3 1,6 2,8 1,2 2,4 3,6 1,1 2,2 4,2 2,0 4,0 6,-1 2,0 5,-1 7,-3 6,-3 12,-7 18,-12 2,-2 5,-4 8,-6 3,-3 6,-5 8,-8 3,-3 5,-5 8,-8 2,-3 4,-5 6,-7 0,0 0,-1 1,-1 0,0 1,-1 1,-1 0,-1 1,-1 2,-1 1,0 1,-1 2,-1 1,0 2,0 2,0 0,0 1,1 2,3 1,2 1,3 1,4z"/>
  <path id="4" class="fil0" d="M1344 644c0,1 0,3 -1,4 0,1 -1,3 -2,4 -1,1 -1,3 -2,4 -1,1 -2,2 -2,3 -2,3 -4,5 -7,8 -3,3 -5,6 -8,9 -3,3 -6,6 -9,8 -3,3 -6,5 -9,7 -2,2 -4,3 -7,4 -2,1 -4,3 -7,4 -2,1 -5,2 -7,2 -2,1 -5,1 -8,1 -5,0 -9,-1 -12,-3 -3,-2 -6,-5 -8,-8 -2,-3 -4,-7 -5,-11 -1,-4 -2,-9 -2,-13 -1,-6 -2,-11 -3,-15 -1,-4 -2,-5 -4,-5 -1,0 -3,0 -4,1 -1,1 -3,2 -5,4 -2,2 -4,5 -7,9 -3,4 -7,9 -11,15 -2,2 -3,5 -6,7 -2,3 -5,5 -7,8 -2,2 -5,5 -7,7 -2,2 -5,3 -7,4 -8,-2 -12,-10 -12,-24 0,-4 0,-9 1,-16 0,-3 1,-6 1,-10 1,-3 1,-7 2,-10 1,-3 2,-7 3,-10 1,-3 2,-6 4,-9 1,-2 2,-3 3,-4 1,-1 2,-2 3,-2 1,0 2,-1 3,-1 1,0 2,0 3,0 1,0 2,0 3,1 1,0 2,1 2,2 1,1 1,2 2,3 0,1 1,3 1,4 0,2 0,3 0,4 0,1 -1,3 -1,4 0,1 -1,3 -1,5 0,2 -1,3 -1,6 0,1 -1,3 -1,5 -1,2 -1,4 -2,7 -1,2 -1,5 -2,7 -1,2 -1,4 -1,6 1,-1 3,-3 4,-5 2,-2 3,-4 5,-7 2,-2 3,-5 5,-7 2,-2 3,-5 5,-7 2,-3 5,-6 7,-8 2,-3 5,-5 7,-7 2,-2 5,-3 8,-4 3,-1 6,-2 10,-2 4,0 8,1 10,3 3,2 5,4 6,7 2,3 3,7 4,11 1,4 1,9 2,14 0,3 1,5 1,8 0,3 1,5 2,7 1,2 2,4 3,5 1,1 3,2 5,2 3,0 6,-1 10,-2 4,-2 7,-4 11,-7 4,-3 8,-6 12,-10 4,-4 8,-8 12,-12 1,-1 3,-3 4,-4 1,-1 2,-3 3,-4 1,-1 2,-2 3,-3 1,-1 2,-1 3,-1 0,0 1,0 1,0 1,0 1,0 1,1 0,0 1,1 1,1 0,1 0,1 0,2z"/>
  <path id="5" class="fil0" d="M1373 628c0,-1 0,-3 0,-4 0,-1 -1,-2 -1,-2 -2,0 -5,1 -7,3 -2,2 -5,5 -7,8 -2,3 -4,8 -6,13 -2,5 -3,10 -4,16 3,-2 6,-5 9,-7 3,-2 6,-5 8,-8 3,-3 5,-6 6,-9 2,-3 2,-6 2,-10zm76 18c0,1 -1,3 -3,6 -3,5 -7,10 -11,14 -4,5 -9,9 -13,14 -5,4 -10,8 -15,12 -5,4 -10,7 -15,9 -5,3 -10,5 -16,6 -5,2 -10,2 -15,2 -11,0 -20,-3 -26,-9 -6,-6 -9,-16 -9,-28 0,-5 0,-10 1,-15 1,-5 2,-10 4,-15 2,-5 4,-9 6,-14 3,-5 6,-9 10,-13 1,-2 3,-3 5,-5 2,-2 4,-3 6,-4 2,-1 4,-2 7,-3 2,-1 5,-1 7,-1 3,0 6,1 9,2 2,1 5,3 6,5 2,2 3,5 4,7 1,3 1,6 1,9 0,6 -2,12 -6,18 -4,6 -10,13 -18,19 -2,2 -5,4 -9,7 -3,2 -7,5 -11,8 0,2 1,3 1,5 1,1 2,3 3,4 1,1 3,2 5,3 2,1 4,1 7,1 3,0 7,0 10,-1 4,-1 7,-2 11,-3 3,-1 7,-3 10,-5 3,-2 6,-4 9,-6 5,-3 9,-7 14,-11 4,-4 9,-8 13,-12l5 -5c4,-3 7,-5 9,-5 1,0 2,0 3,1 1,1 1,2 1,2z"/>
  <path id="6" class="fil0" d="M1534 643c0,2 -1,4 -2,7 -2,3 -4,5 -6,8 -2,3 -5,6 -8,9 -3,3 -6,6 -8,9 -2,2 -4,4 -7,6 -3,3 -7,6 -11,9 -4,3 -8,7 -12,10 -4,4 -8,7 -12,10 -4,3 -7,6 -10,8 -3,2 -5,4 -6,5 -4,3 -8,5 -11,6 -3,1 -7,2 -9,2 -2,0 -4,0 -6,-1 -2,0 -3,-1 -4,-2 -1,-1 -2,-1 -2,-2 0,-1 -1,-2 -1,-3 0,-2 0,-4 1,-6 1,-2 2,-3 4,-5 2,-2 4,-3 7,-5 3,-1 6,-3 10,-5 2,-1 5,-2 7,-3 2,-1 4,-2 5,-3 1,-1 3,-2 3,-4 1,-1 1,-3 1,-5 0,0 0,-1 -1,-3 -1,-1 -1,-3 -2,-4 -1,-2 -2,-3 -3,-5 -1,-2 -2,-4 -4,-6 -1,-2 -2,-4 -3,-5 -1,-2 -2,-3 -2,-4 -3,-5 -4,-10 -4,-15 0,-2 0,-4 1,-7 0,-2 1,-5 2,-7 1,-3 2,-6 4,-9 2,-3 4,-5 6,-8 2,-2 5,-4 7,-5 2,-1 4,-2 6,-2 2,0 4,0 6,1 1,0 3,1 3,2 1,1 1,2 2,3 0,1 1,3 1,5 0,2 0,3 -1,5 -1,1 -2,3 -3,4 -1,1 -2,3 -4,4 -1,1 -2,2 -3,3 -1,1 -3,2 -4,3 -1,1 -2,2 -3,3 0,4 1,8 3,11 1,2 2,4 4,6 1,2 3,5 4,8 2,3 3,5 4,7 1,2 2,4 3,6 1,0 2,-1 4,-3 2,-1 4,-3 6,-5 2,-2 5,-4 8,-6 3,-2 6,-4 9,-7 3,-2 6,-5 8,-7 3,-2 5,-5 7,-7 2,-2 3,-3 5,-5 1,-1 2,-2 3,-3 1,-1 2,-1 2,-2 1,0 1,-1 2,-1 1,0 2,0 2,1 1,1 1,1 1,2 0,1 1,1 1,2 0,1 0,1 0,1z"/>
  <path id="7" class="fil0" d="M1617 643c0,2 -1,4 -2,7 -2,3 -4,5 -6,8 -2,3 -5,6 -8,9 -3,3 -6,6 -8,9 -2,2 -4,4 -7,6 -3,3 -7,6 -11,9 -4,3 -8,7 -12,10 -4,4 -8,7 -12,10 -4,3 -7,6 -10,8 -3,2 -5,4 -6,5 -4,3 -8,5 -11,6 -3,1 -7,2 -9,2 -2,0 -4,0 -6,-1 -2,0 -3,-1 -4,-2 -1,-1 -2,-1 -2,-2 0,-1 -1,-2 -1,-3 0,-2 0,-4 1,-6 1,-2 2,-3 4,-5 2,-2 4,-3 7,-5 3,-1 6,-3 10,-5 2,-1 5,-2 7,-3 2,-1 4,-2 5,-3 1,-1 3,-2 3,-4 1,-1 1,-3 1,-5 0,0 0,-1 -1,-3 -1,-1 -1,-3 -2,-4 -1,-2 -2,-3 -3,-5 -1,-2 -2,-4 -4,-6 -1,-2 -2,-4 -3,-5 -1,-2 -2,-3 -2,-4 -3,-5 -4,-10 -4,-15 0,-2 0,-4 1,-7 0,-2 1,-5 2,-7 1,-3 2,-6 4,-9 2,-3 4,-5 6,-8 2,-2 5,-4 7,-5 2,-1 4,-2 6,-2 2,0 4,0 6,1 1,0 3,1 3,2 1,1 1,2 2,3 0,1 1,3 1,5 0,2 0,3 -1,5 -1,1 -2,3 -3,4 -1,1 -2,3 -4,4 -1,1 -2,2 -3,3 -1,1 -3,2 -4,3 -1,1 -2,2 -3,3 0,4 1,8 3,11 1,2 2,4 4,6 1,2 3,5 4,8 2,3 3,5 4,7 1,2 2,4 3,6 1,0 2,-1 4,-3 2,-1 4,-3 6,-5 2,-2 5,-4 8,-6 3,-2 6,-4 9,-7 3,-2 6,-5 8,-7 3,-2 5,-5 7,-7 2,-2 3,-3 5,-5 1,-1 2,-2 3,-3 1,-1 2,-1 2,-2 1,0 1,-1 2,-1 1,0 2,0 2,1 1,1 1,1 1,2 0,1 1,1 1,2 0,1 0,1 0,1z"/>
  <path id="8" class="fil0" d="M1831 642c0,1 0,3 -1,4 -1,1 -2,3 -4,5 -2,2 -4,4 -7,6 -3,2 -7,5 -11,8 -5,3 -10,6 -16,10 -6,4 -14,8 -22,13 -4,2 -7,4 -10,5 -3,2 -5,3 -6,4 -1,0 -2,1 -3,3 -1,1 -3,3 -4,4 -2,2 -5,5 -7,7 -3,2 -5,5 -8,7 -3,2 -5,4 -8,5 -3,1 -6,2 -9,2 -4,0 -6,-1 -9,-2 -2,-1 -3,-3 -3,-6 0,-1 1,-3 2,-4 1,-2 2,-3 4,-5 2,-2 3,-3 5,-5 2,-2 4,-3 6,-4 2,-1 4,-2 5,-3 2,-1 3,-2 3,-2 3,-2 6,-4 7,-5 2,-1 3,-2 3,-2 4,-3 7,-5 10,-8 3,-3 5,-6 8,-8 2,-3 3,-5 4,-9 1,-3 1,-6 1,-10 0,-1 0,-3 -1,-4 0,-2 -1,-3 -2,-5 -1,-2 -1,-3 -2,-4 -1,-1 -2,-2 -3,-2 -3,0 -6,1 -9,3 -3,2 -6,5 -9,8 -3,3 -6,6 -9,10 -3,4 -6,8 -10,13 -2,3 -4,6 -5,9 -1,3 -2,5 -3,8 -1,2 -1,4 -1,6 0,2 0,4 0,5 0,2 0,3 -1,5 -1,2 -2,3 -3,4 -1,1 -2,2 -4,3 -1,1 -3,1 -4,1 -4,0 -7,-1 -8,-4 -1,-3 -2,-7 -2,-12 0,0 0,-1 0,-2 0,-1 0,-3 0,-5 0,-2 0,-4 0,-7 0,-2 0,-5 0,-7 0,-2 0,-4 0,-5 0,-1 0,-2 0,-2 0,-4 0,-8 1,-11 0,-4 1,-7 1,-11 0,-4 1,-8 1,-12 0,-4 1,-8 2,-13 1,-9 2,-17 3,-25 1,-8 3,-16 5,-23 0,-1 0,-2 1,-3 1,-1 1,-3 2,-4 1,-1 2,-3 3,-4 1,-1 3,-2 4,-2 3,0 5,1 7,1 2,1 3,2 4,4 1,1 1,3 1,4 0,1 0,3 0,4 0,1 0,3 -1,5 -1,2 -1,6 -2,10 -1,7 -3,14 -4,21 -1,7 -3,15 -4,22 0,1 0,3 -1,5 0,2 0,4 -1,7 0,2 0,5 -1,7 0,2 0,4 -1,6 4,-6 7,-12 12,-17 4,-5 9,-10 14,-13 4,-3 7,-5 11,-6 4,-1 7,-2 11,-2 4,0 8,1 11,3 3,2 7,4 9,7 3,3 5,6 6,10 2,4 2,7 2,11 0,1 0,2 0,3 0,1 0,3 -1,4 0,1 -1,3 -2,5 -1,2 -2,3 -3,5 6,-3 11,-7 16,-10 5,-3 10,-6 15,-9 2,-1 4,-3 6,-4 2,-1 3,-2 4,-3 3,-2 6,-3 7,-3 2,0 4,1 5,2 1,1 2,3 2,5z"/>
  <path id="9" class="fil0" d="M1860 628c0,-1 0,-3 0,-4 0,-1 -1,-2 -1,-2 -2,0 -5,1 -7,3 -2,2 -5,5 -7,8 -2,3 -4,8 -6,13 -2,5 -3,10 -4,16 3,-2 6,-5 9,-7 3,-2 6,-5 8,-8 3,-3 5,-6 6,-9 2,-3 2,-6 2,-10zm76 18c0,1 -1,3 -3,6 -3,5 -7,10 -11,14 -4,5 -9,9 -13,14 -5,4 -10,8 -15,12 -5,4 -10,7 -15,9 -5,3 -10,5 -16,6 -5,2 -10,2 -15,2 -11,0 -20,-3 -26,-9 -6,-6 -9,-16 -9,-28 0,-5 0,-10 1,-15 1,-5 2,-10 4,-15 2,-5 4,-9 6,-14 3,-5 6,-9 10,-13 1,-2 3,-3 5,-5 2,-2 4,-3 6,-4 2,-1 4,-2 7,-3 2,-1 5,-1 7,-1 3,0 6,1 9,2 2,1 5,3 6,5 2,2 3,5 4,7 1,3 1,6 1,9 0,6 -2,12 -6,18 -4,6 -10,13 -18,19 -2,2 -5,4 -9,7 -3,2 -7,5 -11,8 0,2 1,3 1,5 1,1 2,3 3,4 1,1 3,2 5,3 2,1 4,1 7,1 3,0 7,0 10,-1 4,-1 7,-2 11,-3 3,-1 7,-3 10,-5 3,-2 6,-4 9,-6 5,-3 9,-7 14,-11 4,-4 9,-8 13,-12l5 -5c4,-3 7,-5 9,-5 1,0 2,0 3,1 1,1 1,2 1,2z"/>
  <path id="10" class="fil0" d="M1972 656c0,-2 1,-4 1,-7 0,-3 1,-6 1,-10 0,-2 0,-4 0,-5 0,-1 0,-2 0,-3 0,-1 0,-2 0,-3 0,-1 -1,-1 -1,-2 -1,0 -2,0 -4,-1 -3,2 -6,4 -9,7 -3,3 -6,6 -8,9 -3,3 -5,6 -7,10 -2,3 -4,7 -6,10 -2,4 -3,7 -4,10 -1,3 -2,6 -2,9 0,1 0,2 1,2 1,0 2,1 2,1 2,0 4,-1 7,-1 2,-1 5,-2 7,-4 2,-1 5,-3 7,-4 2,-2 4,-3 6,-4 1,0 1,-1 2,-2 1,-1 2,-2 3,-3 1,-1 2,-3 3,-4 1,-1 1,-3 1,-4zm21 -17c0,4 -1,9 -1,14 0,5 -1,11 -1,17 0,2 0,5 -1,8 0,3 -1,6 -1,9 0,3 -1,6 -1,9 0,3 -1,6 -1,8 -1,4 -1,8 -2,12 -1,4 -2,8 -4,12 -1,4 -3,8 -5,12 -2,4 -4,7 -7,10 -3,3 -6,5 -10,7 -4,2 -8,3 -13,3 -3,0 -6,0 -9,-1 -3,-1 -6,-2 -9,-3 -3,-1 -6,-3 -9,-4 -3,-2 -5,-3 -7,-5 -6,-5 -10,-9 -12,-13 -1,-1 -1,-3 -2,-4 0,-1 -1,-2 -1,-3 0,-1 0,-3 1,-4 1,-1 2,-1 3,-1 1,0 1,0 2,1 1,0 2,1 3,2 1,1 2,1 2,2 1,1 1,1 1,1 6,5 11,9 18,12 6,3 12,4 18,4 4,0 7,-1 9,-4 3,-2 5,-5 6,-9 2,-4 3,-8 4,-12 1,-4 2,-8 2,-12 1,-4 1,-8 2,-13 0,-5 1,-9 1,-14 -3,3 -6,6 -10,9 -4,3 -7,5 -11,8 -4,2 -8,4 -12,5 -4,1 -8,2 -12,2 -2,0 -4,0 -6,-1 -2,-1 -3,-2 -5,-4 -1,-2 -2,-4 -3,-6 -1,-2 -1,-5 -1,-8 0,-4 1,-8 2,-12 1,-4 3,-9 5,-13 2,-4 4,-8 7,-12 2,-4 5,-8 7,-11 2,-3 5,-6 9,-10 3,-3 7,-7 11,-9 4,-3 8,-5 12,-7 4,-2 8,-3 12,-3 2,0 5,0 7,1 2,1 5,2 7,3 2,1 4,3 5,5 1,2 2,4 2,7 0,1 0,2 0,3 0,1 0,3 0,4 0,1 0,3 -1,4 0,1 0,2 0,4l0 0z"/>
  <path id="11" class="fil0" d="M2063 571c0,2 0,4 -1,6 -1,2 -2,4 -3,5 -2,3 -6,5 -11,5 -2,0 -4,0 -6,0 -2,0 -4,-1 -5,-1 -1,-1 -3,-1 -4,-2 -1,-1 -1,-2 -1,-3 0,-2 0,-4 2,-6 1,-2 2,-4 4,-6 2,-2 3,-4 5,-5 2,-1 4,-2 6,-2 2,0 4,0 6,0 2,0 3,1 4,2 1,1 2,2 3,3 1,1 1,3 1,5zm61 80c0,1 -1,3 -2,6 -1,2 -3,5 -5,8 -2,3 -4,6 -7,9 -3,3 -6,7 -9,10 -3,4 -7,7 -11,11 -4,4 -8,7 -13,10 -4,3 -9,6 -13,8 -4,2 -8,3 -12,3 -5,0 -9,-1 -12,-2 -3,-2 -6,-4 -9,-6 -2,-3 -4,-6 -6,-9 -1,-3 -3,-7 -4,-11 -1,-4 -2,-8 -2,-12 0,-4 0,-8 0,-11 0,-1 0,-3 0,-6 0,-3 0,-6 1,-9 0,-3 1,-6 1,-9 0,-3 1,-5 1,-7 1,-3 3,-6 7,-9 3,-3 7,-4 11,-4 4,0 6,3 6,8 0,2 0,5 -1,8 0,3 -1,5 -1,8 -1,5 -1,9 -2,13 0,4 0,7 0,10 0,3 0,7 1,10 0,3 1,6 2,8 1,2 2,4 3,6 1,1 2,2 4,2 2,0 4,0 6,-1 2,0 5,-1 7,-3 6,-3 12,-7 18,-12 2,-2 5,-4 8,-6 3,-3 6,-5 8,-8 3,-3 5,-5 8,-8 2,-3 4,-5 6,-7 0,0 0,-1 1,-1 0,0 1,-1 1,-1 0,-1 1,-1 2,-1 1,0 1,-1 2,-1 1,0 2,0 2,0 0,0 1,1 2,3 1,2 1,3 1,4z"/>
  <path id="12" class="fil0" d="M2279 644c0,1 0,3 -1,4 0,1 -1,3 -2,4 -1,1 -1,3 -2,4 -1,1 -2,2 -2,3 -2,3 -4,5 -7,8 -3,3 -5,6 -8,9 -3,3 -6,6 -9,8 -3,3 -6,5 -9,7 -2,2 -4,3 -7,4 -2,1 -4,3 -7,4 -2,1 -5,2 -7,2 -2,1 -5,1 -8,1 -5,0 -9,-1 -12,-3 -3,-2 -6,-5 -8,-8 -2,-3 -4,-7 -5,-11 -1,-4 -2,-9 -2,-13 -1,-6 -2,-11 -3,-15 -1,-4 -2,-5 -4,-5 -1,0 -3,0 -4,1 -1,1 -3,2 -5,4 -2,2 -4,5 -7,9 -3,4 -7,9 -11,15 -2,2 -3,5 -6,7 -2,3 -5,5 -7,8 -2,2 -5,5 -7,7 -2,2 -5,3 -7,4 -8,-2 -12,-10 -12,-24 0,-4 0,-9 1,-16 0,-3 1,-6 1,-10 1,-3 1,-7 2,-10 1,-3 2,-7 3,-10 1,-3 2,-6 4,-9 1,-2 2,-3 3,-4 1,-1 2,-2 3,-2 1,0 2,-1 3,-1 1,0 2,0 3,0 1,0 2,0 3,1 1,0 2,1 2,2 1,1 1,2 2,3 0,1 1,3 1,4 0,2 0,3 0,4 0,1 -1,3 -1,4 0,1 -1,3 -1,5 0,2 -1,3 -1,6 0,1 -1,3 -1,5 -1,2 -1,4 -2,7 -1,2 -1,5 -2,7 -1,2 -1,4 -1,6 1,-1 3,-3 4,-5 2,-2 3,-4 5,-7 2,-2 3,-5 5,-7 2,-2 3,-5 5,-7 2,-3 5,-6 7,-8 2,-3 5,-5 7,-7 2,-2 5,-3 8,-4 3,-1 6,-2 10,-2 4,0 8,1 10,3 3,2 5,4 6,7 2,3 3,7 4,11 1,4 1,9 2,14 0,3 1,5 1,8 0,3 1,5 2,7 1,2 2,4 3,5 1,1 3,2 5,2 3,0 6,-1 10,-2 4,-2 7,-4 11,-7 4,-3 8,-6 12,-10 4,-4 8,-8 12,-12 1,-1 3,-3 4,-4 1,-1 2,-3 3,-4 1,-1 2,-2 3,-3 1,-1 2,-1 3,-1 0,0 1,0 1,0 1,0 1,0 1,1 0,0 1,1 1,1 0,1 0,1 0,2z"/>
  <path id="13" class="fil0" d="M2364 643c0,2 -1,4 -2,7 -2,3 -4,5 -6,8 -2,3 -5,6 -8,9 -3,3 -6,6 -8,9 -2,2 -4,4 -7,6 -3,3 -7,6 -11,9 -4,3 -8,7 -12,10 -4,4 -8,7 -12,10 -4,3 -7,6 -10,8 -3,2 -5,4 -6,5 -4,3 -8,5 -11,6 -3,1 -7,2 -9,2 -2,0 -4,0 -6,-1 -2,0 -3,-1 -4,-2 -1,-1 -2,-1 -2,-2 0,-1 -1,-2 -1,-3 0,-2 0,-4 1,-6 1,-2 2,-3 4,-5 2,-2 4,-3 7,-5 3,-1 6,-3 10,-5 2,-1 5,-2 7,-3 2,-1 4,-2 5,-3 1,-1 3,-2 3,-4 1,-1 1,-3 1,-5 0,0 0,-1 -1,-3 -1,-1 -1,-3 -2,-4 -1,-2 -2,-3 -3,-5 -1,-2 -2,-4 -4,-6 -1,-2 -2,-4 -3,-5 -1,-2 -2,-3 -2,-4 -3,-5 -4,-10 -4,-15 0,-2 0,-4 1,-7 0,-2 1,-5 2,-7 1,-3 2,-6 4,-9 2,-3 4,-5 6,-8 2,-2 5,-4 7,-5 2,-1 4,-2 6,-2 2,0 4,0 6,1 1,0 3,1 3,2 1,1 1,2 2,3 0,1 1,3 1,5 0,2 0,3 -1,5 -1,1 -2,3 -3,4 -1,1 -2,3 -4,4 -1,1 -2,2 -3,3 -1,1 -3,2 -4,3 -1,1 -2,2 -3,3 0,4 1,8 3,11 1,2 2,4 4,6 1,2 3,5 4,8 2,3 3,5 4,7 1,2 2,4 3,6 1,0 2,-1 4,-3 2,-1 4,-3 6,-5 2,-2 5,-4 8,-6 3,-2 6,-4 9,-7 3,-2 6,-5 8,-7 3,-2 5,-5 7,-7 2,-2 3,-3 5,-5 1,-1 2,-2 3,-3 1,-1 2,-1 2,-2 1,0 1,-1 2,-1 1,0 2,0 2,1 1,1 1,1 1,2 0,1 1,1 1,2 0,1 0,1 0,1z"/>
  <path id="14" class="fil0" d="M2600 649c0,1 0,2 -1,3 -1,1 -1,3 -3,4 -1,1 -1,2 -3,4 -1,1 -2,3 -3,4 -1,1 -2,3 -4,4 -1,1 -2,3 -3,4 -4,4 -8,7 -12,11 -4,3 -9,7 -13,9 -5,3 -9,5 -14,7 -5,2 -10,2 -15,2 -4,0 -8,-1 -12,-2 -3,-2 -6,-4 -8,-8 -1,-1 -1,-3 -2,-6 -1,-3 -1,-5 -2,-8 -1,-3 -1,-6 -1,-9 0,-3 -1,-5 -1,-7 0,-1 0,-3 0,-4 0,-2 0,-3 -1,-4 0,-1 -1,-3 -1,-3 0,-1 -1,-1 -1,-1 -1,0 -1,0 -2,0 -1,1 -3,2 -6,5 -3,2 -6,6 -9,9 -3,4 -7,8 -11,13 -4,5 -7,10 -11,15 -1,2 -3,4 -4,6 -1,2 -3,5 -4,7 -1,2 -3,5 -4,7 -1,2 -2,4 -3,6 -1,1 -2,2 -3,3 -1,1 -2,1 -3,2 -1,0 -2,1 -3,1 -1,0 -1,0 -2,0 -1,0 -3,0 -4,-1 -1,-1 -2,-1 -3,-2 -1,-1 -2,-2 -2,-3 -1,-1 -1,-3 -1,-4 0,-1 0,-2 0,-4 0,-2 1,-4 1,-6 0,-2 1,-5 1,-7 0,-3 1,-5 1,-7 1,-4 1,-9 2,-14 1,-5 1,-10 2,-15 1,-5 1,-10 1,-15 0,-5 1,-9 1,-13 0,-1 0,-3 0,-5 0,-2 0,-4 0,-7 0,-2 0,-5 0,-8 0,-3 0,-5 0,-8 0,-3 0,-5 0,-7 0,-2 0,-4 0,-6 0,-2 0,-4 0,-5 0,-2 0,-3 1,-5 0,-2 1,-3 1,-5 1,-2 1,-3 2,-5 0,-1 1,-1 2,-2 1,-1 2,-2 3,-2 1,-1 2,-1 3,-2 1,-1 2,-1 4,-1 3,0 5,1 7,3 2,2 3,5 3,8 0,1 0,2 0,4 0,2 0,3 -1,5 0,2 -1,3 -1,4 0,1 0,2 0,2 0,1 0,3 -1,5 0,2 -1,5 -1,8 0,3 -1,7 -1,11 0,4 -1,8 -1,11 0,4 -1,8 -1,11 0,4 -1,7 -1,10 0,3 -1,5 -1,7 0,2 0,3 0,3 0,1 0,3 -1,6 0,2 -1,5 -1,7 0,2 -1,5 -1,7 0,2 -1,4 -1,5 1,-1 1,-2 2,-3 1,-1 2,-3 3,-4 1,-2 2,-3 3,-4 1,-1 2,-2 2,-3 1,-2 2,-3 4,-5 1,-2 3,-4 4,-6 2,-2 3,-4 5,-6 2,-2 3,-4 5,-5 2,-2 4,-4 7,-6 3,-2 5,-4 8,-6 3,-2 6,-3 9,-4 3,-1 6,-2 8,-2 1,0 2,0 3,1 1,0 2,1 3,1 1,1 2,1 3,2 1,1 2,2 2,3 1,2 2,5 2,9 1,3 1,7 2,10 0,4 1,7 1,11 1,4 1,7 2,10 1,3 1,5 2,7 1,2 2,3 3,3 2,0 3,0 5,0 2,0 3,0 4,-1 1,0 3,-1 4,-1 2,-1 3,-1 5,-2 4,-2 7,-3 9,-5 3,-2 5,-3 7,-5 2,-2 5,-4 7,-6 2,-2 5,-5 8,-7 3,-3 6,-5 9,-7 2,-2 4,-3 5,-3 1,0 1,0 2,0 0,0 1,1 1,1 0,1 0,1 1,2 0,1 0,1 0,2z"/>
  <path id="15" class="fil0" d="M2630 628c0,-1 0,-3 0,-4 0,-1 -1,-2 -1,-2 -2,0 -5,1 -7,3 -2,2 -5,5 -7,8 -2,3 -4,8 -6,13 -2,5 -3,10 -4,16 3,-2 6,-5 9,-7 3,-2 6,-5 8,-8 3,-3 5,-6 6,-9 2,-3 2,-6 2,-10zm76 18c0,1 -1,3 -3,6 -3,5 -7,10 -11,14 -4,5 -9,9 -13,14 -5,4 -10,8 -15,12 -5,4 -10,7 -15,9 -5,3 -10,5 -16,6 -5,2 -10,2 -15,2 -11,0 -20,-3 -26,-9 -6,-6 -9,-16 -9,-28 0,-5 0,-10 1,-15 1,-5 2,-10 4,-15 2,-5 4,-9 6,-14 3,-5 6,-9 10,-13 1,-2 3,-3 5,-5 2,-2 4,-3 6,-4 2,-1 4,-2 7,-3 2,-1 5,-1 7,-1 3,0 6,1 9,2 2,1 5,3 6,5 2,2 3,5 4,7 1,3 1,6 1,9 0,6 -2,12 -6,18 -4,6 -10,13 -18,19 -2,2 -5,4 -9,7 -3,2 -7,5 -11,8 0,2 1,3 1,5 1,1 2,3 3,4 1,1 3,2 5,3 2,1 4,1 7,1 3,0 7,0 10,-1 4,-1 7,-2 11,-3 3,-1 7,-3 10,-5 3,-2 6,-4 9,-6 5,-3 9,-7 14,-11 4,-4 9,-8 13,-12l5 -5c4,-3 7,-5 9,-5 1,0 2,0 3,1 1,1 1,2 1,2z"/>
  <path id="16" class="fil0" d="M2786 635c0,1 0,1 0,2 0,1 -1,2 -1,3 -1,1 -1,2 -2,3 -1,1 -2,1 -3,1 0,0 -1,0 -2,0 -1,0 -2,0 -3,0 -1,0 -2,0 -3,0 -1,0 -1,0 -2,0 -11,1 -20,4 -28,12 -2,2 -4,4 -6,6 -2,2 -4,5 -6,7 -2,3 -4,5 -5,8 -2,3 -3,6 -5,9 -1,3 -2,5 -3,8 -1,3 -2,6 -3,9 0,2 -1,3 -1,4 0,1 -1,3 -1,4 0,1 -1,2 -2,3 -1,1 -2,1 -3,2 -1,0 -2,1 -3,1 -1,0 -2,0 -3,1 -4,0 -7,-2 -9,-6 -2,-4 -2,-9 -2,-17 0,-2 0,-3 0,-5 0,-1 0,-3 0,-5 0,-2 0,-3 0,-5 0,-2 0,-4 1,-6 0,-3 1,-7 1,-11 0,-4 1,-8 1,-13 1,-4 1,-8 2,-13 1,-4 1,-7 2,-10 1,-3 2,-6 4,-8 2,-2 5,-3 8,-3 1,0 2,0 3,1 1,1 2,1 3,2 1,1 2,2 2,3 1,1 1,2 1,2l0 2c0,2 0,4 -1,6 0,2 -1,5 -1,8 -1,3 -1,6 -2,8 -1,3 -1,6 -2,8 -1,3 -1,5 -2,7 0,2 -1,4 -1,5 2,-5 5,-9 7,-14 3,-4 5,-9 8,-12 3,-4 6,-7 10,-10 3,-3 7,-5 11,-7 3,-1 6,-2 9,-3 3,-1 5,-1 7,-1 2,0 5,0 8,1 3,1 5,1 7,2 2,1 4,2 5,4 1,1 2,3 2,5z"/>
  <path id="17" class="fil0" d="M2837 628c0,-1 0,-3 0,-4 0,-1 -1,-2 -1,-2 -2,0 -5,1 -7,3 -2,2 -5,5 -7,8 -2,3 -4,8 -6,13 -2,5 -3,10 -4,16 3,-2 6,-5 9,-7 3,-2 6,-5 8,-8 3,-3 5,-6 6,-9 2,-3 2,-6 2,-10zm76 18c0,1 -1,3 -3,6 -3,5 -7,10 -11,14 -4,5 -9,9 -13,14 -5,4 -10,8 -15,12 -5,4 -10,7 -15,9 -5,3 -10,5 -16,6 -5,2 -10,2 -15,2 -11,0 -20,-3 -26,-9 -6,-6 -9,-16 -9,-28 0,-5 0,-10 1,-15 1,-5 2,-10 4,-15 2,-5 4,-9 6,-14 3,-5 6,-9 10,-13 1,-2 3,-3 5,-5 2,-2 4,-3 6,-4 2,-1 4,-2 7,-3 2,-1 5,-1 7,-1 3,0 6,1 9,2 2,1 5,3 6,5 2,2 3,5 4,7 1,3 1,6 1,9 0,6 -2,12 -6,18 -4,6 -10,13 -18,19 -2,2 -5,4 -9,7 -3,2 -7,5 -11,8 0,2 1,3 1,5 1,1 2,3 3,4 1,1 3,2 5,3 2,1 4,1 7,1 3,0 7,0 10,-1 4,-1 7,-2 11,-3 3,-1 7,-3 10,-5 3,-2 6,-4 9,-6 5,-3 9,-7 14,-11 4,-4 9,-8 13,-12l5 -5c4,-3 7,-5 9,-5 1,0 2,0 3,1 1,1 1,2 1,2z"/>
  <polygon class="fil1" points="2426,740 2911,740 2911,758 2426,758 "/>
  <path class="fil1" d="M2808 7l152 0c30,0 52,1 67,4 15,3 28,9 40,19 12,9 21,22 29,38 8,16 12,33 12,53 0,21 -5,41 -14,58 -10,18 -23,31 -39,40 23,8 41,22 53,41 12,19 19,42 19,68 0,21 -4,41 -12,60 -8,20 -19,35 -33,47 -14,12 -31,19 -51,22 -13,2 -44,3 -92,3l-129 0 0 -453zm77 75l0 104 50 0c30,0 48,-1 56,-2 13,-2 23,-7 31,-16 8,-9 11,-21 11,-35 0,-14 -3,-25 -10,-34 -6,-9 -16,-14 -29,-16 -8,-1 -29,-2 -65,-2l-44 0zm0 180l0 122 71 0c28,0 45,-1 53,-3 11,-3 21,-9 28,-18 7,-10 11,-22 11,-39 0,-14 -3,-25 -8,-35 -5,-10 -14,-16 -24,-21 -10,-4 -33,-7 -68,-7l-62 0z"/>
  <polygon class="fil1" points="3188,460 3188,7 3265,7 3265,460 "/>
  <polygon class="fil1" points="3304,460 3304,378 3504,83 3327,83 3327,7 3605,7 3605,78 3397,383 3613,383 3613,460 "/>
  <path class="fil1" d="M0 313l83 -9c5,30 15,52 30,65 15,14 36,21 61,21 27,0 48,-6 61,-19 14,-12 21,-27 21,-44 0,-11 -3,-20 -9,-27 -6,-7 -16,-14 -30,-19 -10,-4 -32,-10 -68,-20 -45,-12 -77,-27 -95,-45 -26,-25 -39,-55 -39,-91 0,-23 6,-45 18,-65 12,-20 30,-35 52,-46 23,-11 50,-16 82,-16 52,0 92,13 119,38 27,25 40,59 42,100l-85 3c-4,-23 -11,-40 -23,-50 -12,-10 -30,-15 -53,-15 -24,0 -44,5 -57,16 -9,7 -13,16 -13,28 0,11 4,20 13,27 11,10 37,20 78,30 41,10 72,21 91,32 20,11 35,26 46,46 11,19 17,43 17,72 0,26 -7,50 -20,73 -13,23 -32,39 -57,50 -24,11 -55,17 -91,17 -53,0 -94,-13 -122,-40 -28,-26 -45,-65 -51,-115z"/>
  <polygon class="fil1" points="413,460 413,8 724,8 724,85 498,85 498,185 708,185 708,261 498,261 498,383 732,383 732,460 "/>
  <polygon id="1" class="fil1" points="899,460 899,85 775,85 775,8 1108,8 1108,85 984,85 984,460 "/>
  <polygon class="fil1" points="1160,460 1160,8 1245,8 1245,460 "/>
  <polygon class="fil1" points="1326,460 1326,8 1408,8 1581,311 1581,8 1659,8 1659,460 1575,460 1404,163 1404,460 "/>
  <path class="fil1" d="M1749 8l155 0c35,0 61,3 80,9 25,8 46,22 63,42 18,20 31,44 40,73 9,29 14,64 14,107 0,37 -4,69 -13,96 -10,33 -25,59 -45,80 -15,15 -35,27 -59,36 -19,6 -44,10 -75,10l-159 0 0 -452zm85 76l0 299 63 0c24,0 41,-1 51,-4 14,-4 25,-10 34,-19 9,-9 16,-23 22,-44 6,-20 9,-48 9,-83 0,-35 -3,-62 -9,-80 -6,-19 -14,-33 -24,-44 -10,-10 -23,-18 -39,-21 -12,-3 -35,-4 -69,-4l-38 0z"/>
  <polygon class="fil1" points="2170,460 2170,8 2255,8 2255,460 "/>
  <path class="fil2" d="M2816 182c-82,-6 -174,3 -251,25l-32 -55 -55 97c0,0 -81,26 -125,69l182 -311 94 159c0,0 115,-4 189,16z"/>
  <path class="fil3" d="M2881 203c-193,21 -403,78 -516,249l0 0 -85 0c0,0 55,-109 192,-179 136,-70 266,-82 410,-71z"/>
  <path class="fil2" d="M2788 460l-86 -1 -99 -172c22,-12 44,-24 71,-28l114 201z"/>
 </g>
</svg>
